<svg xmlns:xlink="http://www.w3.org/1999/xlink" xmlns="http://www.w3.org/2000/svg" width="429.00000000000006" height="106.82270916334662" viewBox="0 0 369.89473684210526 92.10526315789473" class="css-1j8o68f"><defs id="SvgjsDefs1078"></defs><g id="SvgjsG1079" featurekey="odWo6G-0" transform="matrix(3.837719202041626,0,0,3.837719202041626,0,0)" fill="#46CDCF"><g xmlns="http://www.w3.org/2000/svg" fill="#46CDCF"><g fill="#46CDCF"><path d="M12,24C5.383,24,0,18.617,0,12S5.383,0,12,0s12,5.383,12,12S18.617,24,12,24z M12,1C5.935,1,1,5.935,1,12s4.935,11,11,11    s11-4.935,11-11S18.065,1,12,1z" fill="#46CDCF"></path></g><g fill="#46CDCF"><path d="M13.532,23.898c-0.113,0-0.228-0.038-0.321-0.117c-0.212-0.178-0.239-0.493-0.062-0.705    c0.635-0.757,1.704-2.166,1.872-2.722c0.123-0.407,0.152-1.336,0.017-1.664c-0.126-0.304-0.752-0.743-1.256-1.095    C12.906,16.981,12,16.346,12,15.5c0-0.449,0.404-0.71,0.729-0.92c0.078-0.05,0.197-0.127,0.266-0.183    c-0.111-1.038-1.864-2.317-3.282-3.352c-1.078-0.787-2.097-1.53-2.617-2.253C6.742,8.305,6.16,7.24,6.014,6.614    C5.92,6.217,5.991,5.707,6.066,5.167c0.062-0.443,0.165-1.184,0.028-1.374C6.092,3.824,5.84,3.798,5.688,3.783    C5.243,3.739,4.5,3.665,4.5,3c0-0.276,0.224-0.5,0.5-0.5c0.183,0,0.342,0.097,0.429,0.243c0.101,0.019,0.256,0.035,0.358,0.045    C6.22,2.832,6.666,2.876,6.905,3.207c0.372,0.517,0.26,1.32,0.151,2.098C7,5.71,6.936,6.17,6.986,6.385    C7.09,6.824,7.578,7.754,7.905,8.208c0.429,0.594,1.385,1.292,2.396,2.03C12.12,11.564,14,12.937,14,14.5    c0,0.449-0.404,0.71-0.729,0.92c-0.073,0.047-0.183,0.118-0.253,0.173c0.125,0.333,0.846,0.839,1.338,1.185    c0.703,0.493,1.368,0.958,1.605,1.531c0.255,0.615,0.181,1.794,0.017,2.336c-0.282,0.934-1.882,2.859-2.063,3.075    C13.816,23.837,13.675,23.898,13.532,23.898z" fill="#46CDCF"></path></g><g fill="#46CDCF"><path d="M21.501,19c-0.03,0-0.061-0.002-0.091-0.008c-0.271-0.05-0.452-0.31-0.402-0.582c0.264-1.439,0.361-3.236,0.087-3.617    c-0.151-0.209-0.902-0.349-1.399-0.44c-0.563-0.104-1.096-0.203-1.458-0.427c-0.208-0.128-0.384-0.343-0.568-0.571    c-0.107-0.132-0.287-0.353-0.366-0.396c-0.221-0.09-0.784-0.019-1.241,0.037c-0.661,0.083-1.283,0.16-1.753-0.034    c-0.9-0.374-3.889-2.163-3.271-3.653c0.265-0.636,1.03-0.469,1.591-0.348c0.202,0.044,0.542,0.121,0.649,0.095    c0.38-0.241,0.745-1.267,1.038-2.091c0.244-0.687,0.475-1.336,0.778-1.756c0.127-0.176,0.328-0.318,0.541-0.469    c0.08-0.056,0.191-0.135,0.277-0.204c-0.175-0.069-0.533-0.177-0.745-0.241c-0.371-0.111-0.722-0.217-0.961-0.389    c-0.174-0.125-0.316-0.321-0.468-0.529c-0.058-0.078-0.137-0.188-0.208-0.272c-0.04,0.057-0.08,0.12-0.111,0.167    C13.21,3.596,12.949,4,12.5,4c-0.691,0-1.322-0.973-1.462-1.308c-0.181-0.436-0.123-1.088-0.073-1.664    C10.982,0.825,11,0.64,11,0.5C11,0.224,11.224,0,11.5,0S12,0.224,12,0.5c0,0.163-0.018,0.379-0.039,0.615    c-0.032,0.368-0.086,0.985,0.001,1.194c0.08,0.193,0.313,0.491,0.479,0.629c0.048-0.067,0.102-0.149,0.14-0.209    C12.79,2.404,13.051,2,13.5,2c0.473,0,0.777,0.418,1.047,0.787c0.078,0.107,0.196,0.269,0.246,0.308    c0.102,0.073,0.413,0.167,0.662,0.242c0.672,0.202,1.433,0.43,1.538,1.083c0.086,0.527-0.395,0.865-0.781,1.138    c-0.106,0.075-0.269,0.189-0.309,0.238c-0.218,0.303-0.435,0.914-0.646,1.505c-0.381,1.072-0.775,2.181-1.495,2.625    c-0.364,0.226-0.842,0.123-1.347,0.013c-0.127-0.028-0.311-0.068-0.449-0.086c0.171,0.537,1.615,1.727,2.725,2.187    c0.225,0.093,0.79,0.021,1.247-0.034c0.66-0.083,1.284-0.16,1.753,0.034c0.295,0.123,0.527,0.409,0.753,0.685    c0.101,0.124,0.253,0.311,0.318,0.352c0.203,0.125,0.688,0.215,1.114,0.294c0.809,0.149,1.644,0.304,2.029,0.839    c0.658,0.913,0.231,3.585,0.086,4.382C21.947,18.832,21.737,19,21.501,19z" fill="#46CDCF"></path></g></g></g><g id="SvgjsG1080" featurekey="VGK2BT-0" transform="matrix(3.346357822418213,0,0,3.346357822418213,107.74540558008852,1.4482503785471046)" fill="#FFFFFF"><path d="M12.695 6.441000000000001 c0.15254 0 0.27153 0.11881 0.27153 0.25441 l0 13.051 c0 0.13559 -0.10169 0.25424 -0.25424 0.25424 l-0.47458 0 c-0.35593 0 -0.72881 -0.25424 -1.2034 -0.77966 l-7.8644 -9.0339 l0 9.5254 c0 0.15254 -0.11864 0.27119 -0.27119 0.27119 l-1.339 0.016784 c-0.16949 0 -0.28831 -0.11864 -0.28831 -0.28814 l0 -13 c0 -0.15254 0.11881 -0.27119 0.27119 -0.27119 l0.79661 0 c0.15254 0 0.25424 0.067797 0.38983 0.22034 l8.3388 9.7288 l0 -9.6949 c0 -0.13559 0.10169 -0.25424 0.25424 -0.25424 l1.3729 0 z M22.10168813559322 16.4915 c0.61 0 1.0336 -0.30508 1.0336 -1.0169 c0 -2.0847 -1.6102 -3.9831 -4.0847 -3.9831 c-2.3559 0 -4.2034 1.8644 -4.2034 4.3051 c0 2.5422 1.9322 4.288 4.3051 4.288 c1.5085 0 2.6949 -0.61017 3.4237 -1.5932 c0.10186 -0.13559 0.067963 -0.23729 -0.033568 -0.37288 l-0.32203 -0.42373 c-0.13559 -0.16933 -0.27119 -0.15254 -0.44085 -0.050847 c-0.5422 0.44068 -1.4405 0.81373 -2.4236 0.81373 c-1.3898 0 -2.3729 -0.84746 -2.5593 -1.9661 l5.3051 0 z M16.79648813559322 15.050799999999999 c0.067797 -0.81356 0.83051 -1.8644 2.2203 -1.8644 c1.4068 0 2.1356 1.0678 2.1864 1.8644 l-4.4068 0 z M36.525728813559326 11.6102 c0.20339 0 0.28831 0.11881 0.20356 0.30525 l-3.1695 7.8983 c-0.033898 0.10169 -0.15254 0.18627 -0.27119 0.18627 l-0.20339 0 c-0.13559 0 -0.23729 -0.08458 -0.30508 -0.18627 l-2.4746 -5.1186 l-2.4746 5.1186 c-0.050847 0.10169 -0.16949 0.18627 -0.28814 0.18627 l-0.22034 0 c-0.11864 0 -0.22034 -0.08458 -0.27119 -0.18627 l-3.1695 -7.8983 c-0.067797 -0.18644 0.016784 -0.30525 0.20339 -0.30525 l1.4066 0 c0.13559 0 0.25441 0.084746 0.30525 0.18661 l1.8981 5.1695 l2.1525 -5.0847 c0.050847 -0.11864 0.15271 -0.18644 0.3222 -0.18644 l0.28814 0 c0.16949 0 0.25424 0.067797 0.30508 0.18644 l2.1695 5.0847 l1.8814 -5.1695 c0.050847 -0.10186 0.15238 -0.18661 0.30492 -0.18661 l1.4068 0 z M37.9998306779661 18.7798 l0.5761 -0.91508 c0.11864 -0.18661 0.22034 -0.23746 0.38983 -0.15271 c0.016949 0.033898 1.0508 0.64407 2.1864 0.64407 c0.98305 0 1.322 -0.38983 1.322 -0.77966 c0 -0.57627 -0.62712 -0.77949 -1.7627 -1.0676 c-1.6102 -0.42373 -2.678 -1.2542 -2.678 -2.5424 c0 -1.2712 1.0847 -2.4576 3.1186 -2.4576 c1.2373 0 2.0847 0.42373 2.7627 0.81356 c0.16949 0.10169 0.25424 0.25424 0.15254 0.38983 l-0.62712 0.9661 c-0.084746 0.13559 -0.22034 0.18644 -0.37288 0.13559 c-0.44068 -0.22017 -1.1525 -0.54237 -1.9153 -0.54237 c-0.94915 0 -1.2034 0.47458 -1.2034 0.76271 c0 0.49153 0.71186 0.72881 1.5763 0.96593 c1.5086 0.40678 3.0171 1.1356 3.0171 2.6102 c0 1.4237 -1.3558 2.5083 -3.3898 2.5083 c-1.3898 0 -2.6441 -0.6778 -3.0678 -1.0168 c-0.11864 -0.067797 -0.15254 -0.23729 -0.084746 -0.32203 z M57.576084745762714 6.441000000000001 c0.16966 0 0.28831 0.11881 0.28831 0.27136 l0 13 c0 0.18644 -0.10169 0.28797 -0.25424 0.28797 l-1 0 c-0.42373 0 -0.66102 -0.28797 -0.66102 -0.6778 l0 -5.0169 l-7.4576 0 l0 5.4068 c0 0.15254 -0.11881 0.28797 -0.27119 0.28797 l-1.3559 0 c-0.16949 0 -0.28831 -0.11864 -0.28831 -0.28814 l0 -13 c0 -0.15254 0.10186 -0.27119 0.27119 -0.27119 l1.3559 0 c0.16949 0 0.28831 0.11864 0.28831 0.27119 l0 5.678 l7.4576 0 l0 -5.678 c0 -0.15254 0.10169 -0.27119 0.27119 -0.27119 l1.3558 0 z M67.86439322033898 11.6102 c0.15254 0 0.25424 0.11881 0.25424 0.28831 l0 7.8305 c0 0.15238 -0.10169 0.27102 -0.23729 0.27102 l-1.0508 0 c-0.28814 0 -0.52542 -0.42356 -0.54237 -0.71169 l0 -0.18644 c-0.66102 0.50847 -1.5593 0.99983 -2.7119 0.99983 c-1.7458 0 -3.4915 -1.1015 -3.4915 -3.2202 l0 -3.7458 c0 -0.45763 -0.033898 -0.81356 -0.084746 -1.1695 c-0.033898 -0.18644 0.016949 -0.35593 0.16949 -0.35593 l1.1017 0 c0.42373 0 0.66102 0.28814 0.66102 0.67797 l0 4.4237 c0 1.1186 0.76271 1.7458 1.8983 1.7458 c0.9661 0 1.7627 -0.54237 2.4576 -1.2373 l0 -5.322 c0 -0.16949 0.10169 -0.28831 0.25407 -0.28831 l1.3222 0 z M74.45749491525423 11.5256 c1.9831 0 3.8812 1.6273 3.8812 4.1697 c0 2.4746 -1.5424 4.4064 -3.9322 4.4064 c-0.91525 0 -1.6949 -0.30475 -2.3049 -0.72847 c-0.084746 0.40678 -0.54237 0.62695 -0.88136 0.62695 l-0.67797 0 c-0.15254 0 -0.27119 -0.11864 -0.27119 -0.27102 l0 -11.831 c0 -0.52542 -0.084746 -0.79661 -0.13559 -1.1017 c-0.033732 -0.18661 0.017115 -0.3561 0.18661 -0.3561 l1.1525 0 c0.38983 0 0.64407 0.25424 0.64407 0.61017 l0 5.1356 c0.57627 -0.35593 1.3219 -0.66102 2.3388 -0.66102 z M74.11829491525422 18.3903 c1.3729 0 2.4068 -1.0169 2.4068 -2.6949 c0 -1.7288 -1.2712 -2.4576 -2.339 -2.4576 c-0.76271 0 -1.4576 0.27119 -2.0678 0.66102 l0 3.9322 c0.54237 0.30508 1.1864 0.55932 2 0.55932 z" fill="#FFFFFF"></path></g></svg>